<svg width="34" height="22" viewBox="0 0 34 22" fill="none" xmlns="http://www.w3.org/2000/svg"> <path fill-rule="evenodd" clip-rule="evenodd" d="M24.3667 16.525C24.5083 18.0833 24.0833 21.2 20.6833 21.7667C15.4417 21.7667 3.68333 21.7667 3.68333 21.7667C3.68333 21.7667 0.283333 21.4833 0 18.0833C0 11.7083 0 1.36667 0 1.36667C0 1.36667 0.141667 0.233337 0.991667 0.233337H26.9167C26.9167 0.233337 32.725 0.94167 33.8583 6.60834C34.9917 12.4167 30.6 16.8083 24.3667 16.525ZM17.1417 5.475C14.45 4.34167 12.1833 6.89167 12.1833 6.89167C10.3417 4.76667 7.36667 4.90834 6.09167 6.325C4.675 7.74167 5.1 10.15 6.23333 11.5667C7.08333 12.8417 11.1917 16.525 11.9 17.2333C11.9 17.2333 11.9472 17.2806 12.0417 17.375C12.325 17.5167 12.4667 17.2333 12.4667 17.2333C12.4667 17.2333 16.4333 13.6917 18.1333 11.7083C19.6917 9.86667 19.8333 6.75 17.1417 5.475ZM29.8917 8.025C29.8917 5.05 27.0583 4.34167 27.0583 4.34167H24.5083V12.4167C24.5083 12.4167 25.6417 12.5583 26.9167 12.275C28.475 11.85 29.8917 10.7167 29.8917 8.025Z" fill="white"/> </svg>