<svg version="1.1" id="Layer_1" xmlns="http://www.w3.org/2000/svg" xmlns:xlink="http://www.w3.org/1999/xlink" x="0px" y="0px" width="100%" viewBox="0 0 1280 1280" enable-background="new 0 0 1280 1280" xml:space="preserve">

<path fill="#FFFFFF" opacity="1.000000" stroke="none" d="
M745.000244,973.959351 
	C742.334534,982.743225 739.393555,991.036194 737.070312,999.498779 
	C733.248535,1013.419678 729.738464,1027.428711 726.288879,1041.447754 
	C725.208984,1045.836670 724.831421,1050.393677 723.985107,1054.845581 
	C722.033875,1065.109375 720.071716,1075.372192 717.965820,1085.604858 
	C715.732361,1096.457642 713.645203,1107.355835 710.912903,1118.086304 
	C707.877319,1130.007812 704.357788,1141.815674 700.716248,1153.569946 
	C698.455383,1160.867065 696.109253,1168.227905 692.822754,1175.091553 
	C689.621033,1181.778198 685.447510,1188.066040 681.099548,1194.095459 
	C679.846680,1195.832764 676.579834,1196.606201 674.125977,1196.900269 
	C665.716309,1197.907959 658.895081,1196.024048 654.035950,1187.799194 
	C650.610840,1182.001587 649.451721,1176.235840 648.914795,1169.825928 
	C647.884277,1157.522705 646.341125,1145.262695 645.047119,1132.980957 
	C644.908081,1131.661377 645.001404,1130.316650 645.001282,1128.983521 
	C644.999512,1106.105347 644.937744,1083.226929 645.045654,1060.349243 
	C645.071228,1054.929321 645.338013,1049.466309 646.081238,1044.104614 
	C647.121826,1036.597778 648.520325,1029.125854 650.110840,1021.713196 
	C652.936646,1008.543640 655.617798,995.321045 659.112244,982.323059 
	C662.586670,969.399536 666.738586,956.640198 671.057373,943.966980 
	C674.816284,932.936523 678.911865,921.996460 683.418396,911.251160 
	C689.536011,896.664307 696.072021,882.248657 702.643799,867.857788 
	C708.442017,855.160828 714.498291,842.580750 720.510193,829.982300 
	C725.734314,819.034790 731.058655,808.135071 736.333435,797.211731 
	C739.886108,789.854309 743.322815,782.438538 747.003723,775.145935 
	C751.785400,765.672546 756.649902,756.237122 761.696045,746.902771 
	C764.067932,742.515381 763.333740,739.114746 759.246765,735.601807 
	C756.790039,733.490173 754.882019,730.735657 752.752563,728.248474 
	C740.914124,714.421021 729.036316,700.626831 717.264709,686.742737 
	C707.515686,675.244263 698.435364,663.285278 691.876587,649.578796 
	C685.858154,637.001587 678.948608,624.802185 673.693420,611.921509 
	C668.030151,598.040710 663.424805,583.682922 659.151184,569.297607 
	C656.637024,560.834595 655.412781,551.952026 654.065430,543.187927 
	C652.461914,532.757507 650.856750,522.283203 650.183960,511.768372 
	C649.680603,503.902222 650.598083,495.938934 650.989502,488.024139 
	C651.216370,483.435516 651.326050,478.803894 652.061951,474.285004 
	C653.872131,463.169800 655.216858,451.885986 658.233398,441.084595 
	C661.655396,428.832123 665.900696,416.665527 671.221130,405.122162 
	C678.608093,389.095490 687.150574,373.587158 695.549866,358.046936 
	C700.183105,349.474548 705.577271,341.315643 710.551392,332.924713 
	C716.084595,323.590820 721.328430,314.079010 727.072693,304.878510 
	C732.457214,296.254303 738.025024,287.709076 744.070068,279.542023 
	C751.067139,270.088745 758.273254,260.724884 766.146729,252.006821 
	C772.066589,245.451904 779.458069,240.250031 785.696594,233.952576 
	C793.505920,226.069534 803.499634,222.945892 813.606567,219.911774 
	C816.671143,218.991776 819.887817,218.183655 823.057556,218.089752 
	C830.025574,217.883331 832.049133,219.979675 833.768188,226.769562 
	C837.823425,242.786926 836.995605,258.784149 831.222046,274.340729 
	C827.546265,284.244873 824.230042,294.383606 819.447937,303.751129 
	C813.066528,316.251282 805.372620,328.078217 798.330444,340.245239 
	C793.114990,349.256165 788.183167,358.433472 782.868042,367.384064 
	C775.164612,380.356506 766.911743,393.012054 759.499268,406.144806 
	C754.155884,415.611572 749.564270,425.529175 745.084473,435.447693 
	C741.996521,442.284729 739.656738,449.460938 737.010864,456.496216 
	C730.194092,474.622192 729.089478,493.557678 730.184265,512.549683 
	C730.863708,524.336731 732.531433,536.211792 735.242981,547.696167 
	C737.979858,559.288330 741.763977,570.791321 746.526611,581.706177 
	C752.212097,594.736023 758.481018,607.716370 766.237732,619.580200 
	C774.168579,631.710510 784.186279,642.479675 793.333923,653.809570 
	C796.614990,657.873474 800.001587,661.853088 803.381348,665.836060 
	C805.184021,667.960510 807.067139,668.267578 808.735596,665.685059 
	C815.314880,655.501160 821.726868,645.205872 828.472107,635.133484 
	C833.345520,627.856262 838.684387,620.892151 843.747620,613.740234 
	C848.448914,607.099609 852.867737,600.250488 857.754578,593.751587 
	C865.635010,583.271545 873.776611,572.987183 881.847229,562.650940 
	C889.155396,553.291260 896.355896,543.841003 903.896118,534.671021 
	C912.680481,523.987976 921.791748,513.574036 930.743042,503.027863 
	C936.659485,496.057129 942.397522,488.928833 948.477539,482.104645 
	C957.223999,472.287750 966.266174,462.735046 975.071716,452.969971 
	C980.910522,446.494781 986.368591,439.669098 992.337097,433.319977 
	C999.291992,425.921539 1006.731445,418.980347 1013.744202,411.634064 
	C1018.750977,406.389130 1023.271423,400.681549 1028.245361,395.403290 
	C1033.440063,389.890869 1038.892822,384.619934 1044.278198,379.289459 
	C1051.164551,372.473297 1058.036987,365.641144 1065.026855,358.931915 
	C1071.002197,353.196472 1077.150391,347.641479 1083.192871,341.975555 
	C1088.152100,337.325439 1093.012329,332.568390 1098.022827,327.974823 
	C1101.509033,324.778656 1105.225830,321.835114 1108.748901,318.677490 
	C1113.231079,314.660156 1117.469238,310.357544 1122.089966,306.511047 
	C1127.942139,301.639526 1133.919556,296.886841 1140.125732,292.481140 
	C1146.677490,287.830078 1153.770508,283.932953 1160.252808,279.194519 
	C1170.286621,271.860046 1181.877441,267.658325 1193.471680,264.644958 
	C1203.435547,262.055359 1214.317139,262.225403 1224.753784,262.527313 
	C1230.658936,262.698151 1232.777466,267.840332 1230.360474,274.056976 
	C1227.227295,282.115845 1223.773682,290.080048 1219.943359,297.830597 
	C1214.876953,308.082367 1209.996338,318.533997 1203.773682,328.076721 
	C1197.225708,338.118378 1189.027710,347.069183 1181.847290,356.717468 
	C1174.103638,367.122589 1163.874878,374.833557 1154.351074,383.368805 
	C1144.139282,392.520508 1134.532349,402.346405 1124.642700,411.858612 
	C1116.794312,419.407562 1108.647461,426.667633 1101.110352,434.514343 
	C1086.030518,450.213745 1071.292358,466.241119 1056.383057,482.104797 
	C1049.982422,488.915100 1043.478516,495.628632 1037.081177,502.442017 
	C1035.067871,504.586243 1033.293091,506.952393 1031.332642,509.148590 
	C1020.004456,521.838440 1008.431396,534.317566 997.367432,547.233093 
	C984.123718,562.693176 971.151062,578.393127 958.356079,594.227661 
	C947.620667,607.513306 937.154663,621.024658 926.857178,634.653564 
	C918.355652,645.905579 909.969727,657.269653 902.081177,668.954407 
	C890.811584,685.647156 879.873779,702.571228 869.121826,719.603271 
	C862.425415,730.210999 856.244568,741.149231 849.994934,752.032532 
	C843.717163,762.964722 837.517456,773.945679 831.517822,785.032104 
	C827.146729,793.109192 823.062805,801.346436 819.017517,809.594055 
	C812.725220,822.423157 806.530945,835.300903 800.376282,848.196777 
	C794.377136,860.766846 788.416382,873.356079 782.558411,885.992371 
	C777.792542,896.272888 773.058838,906.572998 768.570862,916.976501 
	C762.246094,931.637695 756.146484,946.396057 749.984192,961.126892 
	C748.263184,965.240906 746.659851,969.404114 745.000244,973.959351 
z" data-index="1" style="visibility: visible;"></path>
<path fill="#FFFFFF" opacity="1.000000" stroke="none" d="
M270.744812,488.669922 
	C274.652069,482.153198 278.257599,475.900177 282.041901,469.757263 
	C287.262817,461.282379 292.384827,452.731964 297.969604,444.499054 
	C307.107269,431.028564 316.667114,417.845154 325.883453,404.427032 
	C330.779480,397.298828 334.967529,389.664703 340.109528,382.729218 
	C350.213837,369.100677 360.805573,355.834503 371.104675,342.348907 
	C375.539673,336.541779 379.562408,330.414062 384.106995,324.697968 
	C389.724670,317.632111 395.814880,310.942780 401.460846,303.898346 
	C405.094696,299.364380 408.136871,294.358795 411.726929,289.786591 
	C418.273285,281.449432 425.001923,273.254517 431.707184,265.043304 
	C437.038940,258.514008 442.441498,252.042404 447.826599,245.556793 
	C454.206940,237.872604 460.542053,230.149719 467.008026,222.538101 
	C473.479614,214.919876 479.932251,207.274811 486.690155,199.914185 
	C491.463623,194.715012 496.759369,189.997681 501.769104,185.012192 
	C504.433594,182.360657 506.948273,179.559082 509.596130,176.890305 
	C515.665100,170.773315 521.773193,164.695038 527.867676,158.603409 
	C532.901978,153.571503 537.761169,148.345306 543.038818,143.582916 
	C546.517029,140.444275 550.405945,137.645386 554.449463,135.270966 
	C564.950745,129.104507 575.578735,123.144417 586.300476,117.370018 
	C588.620850,116.120369 591.519714,115.835060 594.199036,115.383110 
	C601.362000,114.174858 608.519348,112.514465 615.736145,112.142166 
	C626.400635,111.592010 630.030090,116.191711 626.682190,126.416985 
	C622.854370,138.108154 618.644592,149.774689 613.365479,160.863876 
	C607.264221,173.680145 600.260315,186.129272 592.803345,198.216553 
	C587.469421,206.862488 581.112305,214.963181 574.517639,222.716827 
	C569.678162,228.406815 563.500427,232.935287 558.303833,238.350586 
	C551.677429,245.255905 545.396545,252.495956 539.050842,259.666199 
	C535.918884,263.205109 533.023071,266.951904 529.938599,270.534180 
	C519.034241,283.198517 507.931519,295.696167 497.212372,308.514862 
	C485.640411,322.353333 474.253113,336.353973 463.086182,350.521057 
	C453.201752,363.061127 443.669922,375.881561 434.095551,388.662933 
	C425.872528,399.640320 417.779236,410.715393 409.683350,421.787292 
	C399.816254,435.281433 389.741608,448.634674 380.248016,462.388000 
	C371.172180,475.536133 362.549957,489.008484 354.058105,502.545166 
	C346.909882,513.940125 340.030579,525.516174 333.404724,537.222961 
	C325.664307,550.899048 318.234894,564.754272 310.845154,578.624756 
	C304.605194,590.337097 298.301117,602.033020 292.600494,614.009949 
	C286.702942,626.400574 281.521698,639.131287 275.981598,651.693237 
	C272.702118,659.129333 269.171173,666.458740 266.055603,673.961731 
	C263.311676,680.569580 261.112976,687.402100 258.445404,694.043823 
	C255.414093,701.591248 251.942017,708.964233 249.003189,716.545471 
	C245.480240,725.633423 242.402603,734.893066 238.973801,744.018860 
	C236.122421,751.607971 232.963745,759.081299 230.094742,766.664001 
	C228.569977,770.693970 227.440430,774.871643 226.012466,778.940491 
	C221.929596,790.574219 217.455063,802.082581 213.758789,813.836609 
	C210.108566,825.444214 207.150101,837.272766 204.024521,849.040649 
	C202.098236,856.293091 200.301498,863.585632 198.685410,870.912781 
	C197.577957,875.933899 196.733536,881.025452 196.040359,886.122131 
	C195.252289,891.916748 194.836929,897.761047 194.126892,903.567505 
	C193.145752,911.590942 192.002243,919.594360 190.999161,927.615295 
	C189.955505,935.960571 189.105682,944.331543 187.962891,952.662659 
	C187.154877,958.553162 185.857437,964.376160 185.034515,970.265015 
	C183.897537,978.401367 183.320190,986.626953 181.910629,994.710999 
	C180.561584,1002.447754 178.550781,1010.076233 176.650711,1017.707458 
	C175.150116,1023.734253 173.892975,1029.900757 171.590714,1035.628540 
	C168.814835,1042.534668 165.432312,1049.273193 161.596741,1055.654175 
	C158.191055,1061.320068 146.630661,1062.590698 140.737488,1059.423828 
	C130.689346,1054.023926 127.804573,1044.687012 126.059998,1034.625366 
	C125.364082,1030.611816 126.211861,1026.143921 124.799400,1022.483765 
	C122.514961,1016.564026 122.079361,1010.622681 121.669174,1004.462341 
	C121.195885,997.354248 119.736534,990.317688 119.039146,983.217285 
	C117.583206,968.393677 115.821091,953.570923 115.186440,938.705078 
	C114.679298,926.825928 115.363831,914.866333 116.065498,902.974731 
	C116.599174,893.929932 117.699112,884.890564 119.086533,875.932312 
	C120.336563,867.861328 122.410667,859.921326 123.953186,851.891235 
	C125.415756,844.277344 126.195297,836.503479 128.099777,829.009399 
	C131.766144,814.582581 135.733383,800.216553 140.137344,785.999207 
	C142.430954,778.594727 146.196548,771.658875 148.803024,764.335510 
	C152.446320,754.098938 155.414627,743.621643 159.080750,733.393982 
	C161.596054,726.376770 165.000259,719.682678 167.661209,712.712097 
	C171.599228,702.396179 175.144730,691.931030 179.018997,681.589966 
	C182.161667,673.201782 185.548492,664.905273 188.815903,656.563660 
	C193.226242,645.304199 197.619827,634.038147 202.041748,622.783264 
	C202.394516,621.885376 202.911377,621.051880 203.352295,620.188660 
	C207.948822,611.190063 207.926468,611.213135 200.560837,604.063843 
	C188.087784,591.957214 175.448837,580.012024 163.269913,567.615479 
	C156.628235,560.855103 150.653168,553.417969 144.626633,546.081360 
	C138.907074,539.118408 132.917465,532.264954 128.122513,524.682861 
	C121.866745,514.790833 116.581390,504.276306 111.061081,493.932190 
	C108.747131,489.596191 106.749969,485.072815 104.873650,480.525360 
	C100.498566,469.921906 95.850113,459.400391 92.148178,448.560272 
	C89.414787,440.556274 87.937981,432.116302 86.017044,423.843689 
	C84.281555,416.369690 82.368561,408.912994 81.152557,401.349213 
	C80.013222,394.262268 79.779213,387.034363 78.980064,379.887146 
	C77.404167,365.793060 80.396774,351.929352 81.220917,337.969238 
	C81.658478,330.557526 84.089966,323.206879 86.087204,315.957001 
	C89.185448,304.710541 92.377861,293.470673 96.121445,282.428436 
	C98.417755,275.655182 101.765732,269.232544 104.736198,262.695496 
	C107.311859,257.027313 110.131355,251.468445 112.642227,245.772690 
	C115.599907,239.063370 118.042816,232.113007 121.254715,225.533585 
	C124.966492,217.930176 129.361725,210.663727 133.303040,203.168350 
	C141.614365,187.362366 149.366272,171.239349 158.270187,155.777634 
	C162.612793,148.236633 168.973511,141.845596 174.517365,135.012436 
	C178.940582,129.560532 183.204926,123.926903 188.114517,118.939713 
	C191.820267,115.175430 196.792084,112.668999 200.565338,108.957153 
	C207.167633,102.462265 216.267563,101.979446 224.137711,98.726196 
	C230.990067,95.893684 236.567123,98.949768 238.812820,106.759491 
	C240.494965,112.609383 240.911987,118.816002 242.034760,124.837227 
	C242.496857,127.315331 244.230026,129.877838 243.842148,132.137054 
	C242.211044,141.637405 240.487381,151.177948 237.841522,160.430374 
	C235.711288,167.879684 232.229568,174.945084 229.308243,182.164932 
	C225.895599,190.599075 222.629669,199.099777 218.948288,207.415863 
	C215.527954,215.142227 211.795624,222.741608 207.917313,230.250565 
	C204.841446,236.205841 201.106461,241.823303 198.085190,247.803482 
	C194.800400,254.305237 192.081787,261.090393 188.966446,267.681183 
	C186.448395,273.008362 183.531387,278.150665 181.107529,283.517761 
	C177.501312,291.502991 173.710480,299.452881 170.838120,307.709991 
	C166.699020,319.608551 162.481888,331.590546 159.843521,343.869019 
	C157.281601,355.791779 155.508316,368.014740 157.871017,380.436127 
	C159.175720,387.295288 158.961456,394.434906 160.114685,401.333984 
	C161.059708,406.987488 162.851868,412.522644 164.558945,418.020111 
	C167.249725,426.685455 169.573929,435.540741 173.179688,443.825378 
	C177.123123,452.885834 182.658691,461.239685 186.935654,470.171906 
	C192.623398,482.050507 200.818588,492.126587 209.462646,501.743744 
	C219.883026,513.337219 231.137421,524.182983 242.148193,535.235535 
	C242.519958,535.608704 244.740082,535.044922 245.125488,534.365723 
	C252.174042,521.943298 259.069275,509.433929 266.008087,496.949188 
	C267.490814,494.281342 269.016785,491.637543 270.744812,488.669922 
z" data-index="2" style="visibility: visible; opacity: 1;"></path>
</svg>