<svg width="40" height="40" viewBox="0 0 40 40" fill="none" xmlns="http://www.w3.org/2000/svg">
<path d="M16.6666 26.6666C19.4444 26.6666 21.8055 25.6944 23.75 23.75C25.6944 21.8055 26.6666 19.4444 26.6666 16.6666C26.6666 13.8889 25.6944 11.5278 23.75 9.58331C21.8055 7.63887 19.4444 6.66665 16.6666 6.66665C13.8889 6.66665 11.5278 7.63887 9.58331 9.58331C7.63887 11.5278 6.66665 13.8889 6.66665 16.6666C6.66665 19.4444 7.63887 21.8055 9.58331 23.75C11.5278 25.6944 13.8889 26.6666 16.6666 26.6666ZM15 21.6666V9.99998H18.3333V21.6666H15ZM9.16665 21.6666V13.3333H12.5V21.6666H9.16665ZM20.8333 21.6666V15H24.1666V21.6666H20.8333ZM34.3333 36.6666L24.875 27.2083C23.7361 28.0972 22.4722 28.7847 21.0833 29.2708C19.6944 29.7569 18.2222 30 16.6666 30C12.9444 30 9.79165 28.7083 7.20831 26.125C4.62498 23.5416 3.33331 20.3889 3.33331 16.6666C3.33331 12.9444 4.62498 9.79165 7.20831 7.20831C9.79165 4.62498 12.9444 3.33331 16.6666 3.33331C20.3889 3.33331 23.5416 4.62498 26.125 7.20831C28.7083 9.79165 30 12.9444 30 16.6666C30 18.2222 29.7569 19.6944 29.2708 21.0833C28.7847 22.4722 28.0972 23.7361 27.2083 24.875L36.6666 34.3333L34.3333 36.6666Z" fill="#E8EAED"/>
</svg>
